# Blender 4.3.0
# www.blender.org
mtllib baby.mtl
o babycorpo_obj_1.001
v -0.775666 0.437004 0.426749
v -0.687742 0.404420 0.419623
v -0.843192 0.437634 0.360340
v -0.734415 0.371386 0.336275
v -0.767655 0.182533 0.105703
v -0.705208 0.366373 0.276096
v -0.110285 1.147749 0.601212
v -0.132639 1.114547 0.591928
v -0.147927 1.207193 0.377441
v -0.297662 1.271570 0.359655
v -0.298465 1.186980 0.574687
v -0.255495 1.069901 0.286798
v -0.196394 1.088379 0.231288
v -0.648493 0.330237 0.249146
v -0.574806 0.365366 0.284483
v -0.623486 0.293204 0.225134
v -0.875497 0.364408 0.142990
v -0.704278 0.192209 0.092660
v -0.700880 0.338730 0.140319
v -0.906264 0.427395 0.303231
v -0.841021 0.214228 0.069357
v -0.820265 0.280513 0.038451
v -0.691133 0.253286 0.063679
v -0.725750 -0.083245 -0.213706
v -0.747154 0.093631 -0.255797
v -0.729541 -0.008050 -0.315828
v -0.333275 1.164965 0.278815
v -0.203541 1.335967 0.167851
v -0.307306 1.335306 0.200848
v -0.331611 1.193378 0.133684
v -0.241644 1.194928 0.128542
v -0.455583 0.968569 0.030748
v -0.308701 0.994625 -0.013009
v -0.355041 0.769249 0.268539
v -0.469197 0.904499 0.230452
v -0.238431 0.720320 0.211575
v -0.505763 0.910663 0.148190
v -0.426862 0.499756 0.147232
v -0.320380 0.506892 0.184381
v -0.170245 0.936967 0.081121
v -0.206607 0.524206 0.075348
v -0.218598 0.707141 0.005568
v -0.518900 0.605400 0.065895
v -0.478565 0.756839 -0.053111
v -0.453353 0.396380 -0.058019
v -0.344341 0.391493 -0.008352
v -0.210939 0.418152 -0.145922
v -0.267257 0.378370 -0.140591
v -0.138499 -0.870686 0.727310
v -0.287577 -0.310157 0.325541
v -0.203847 -0.116605 0.318482
v -0.097096 -0.156092 0.257948
v -0.168933 -0.383416 0.672187
v -0.314621 -0.594156 0.698091
v -0.455438 -0.719954 0.526589
v -0.075386 -0.269251 0.542608
v -0.290540 -0.311577 0.520340
v -0.437225 -0.549680 0.533871
v -0.388387 -0.324097 0.285229
v -0.175529 -0.227700 0.387409
v -0.450581 -0.379185 0.324009
v -0.233297 -1.042414 0.621445
v -0.407214 -0.988199 0.465683
v -0.300140 -1.145267 0.437291
v -0.478055 -0.856643 0.378983
v -0.152348 -1.262303 0.320431
v -0.937215 0.031869 -0.181248
v -0.198102 -0.143822 0.223704
v -0.274000 -0.206718 0.263798
v -0.190237 -0.093514 0.186234
v -0.444042 -0.244936 0.047670
v -0.258307 -0.128681 0.075008
v -0.159303 -0.081333 0.105903
v -0.396925 -0.246357 -0.085732
v -0.167275 -0.104517 -0.029125
v -0.250827 -0.268367 -0.143816
v -0.021500 -0.270630 -0.140414
v -0.507597 -0.504150 0.177563
v -0.460561 -0.694663 0.038766
v -0.441867 -0.655600 -0.022806
v -0.455967 -0.411496 -0.092219
v -0.470268 -0.674519 -0.131549
v -0.416090 -0.619943 -0.079319
v -0.391182 -0.491246 -0.126410
v -0.364523 -0.369541 -0.142323
v -0.399694 -1.077189 0.185362
v -0.471821 -0.789594 0.080045
v -0.295522 -1.099220 -0.053467
v -0.508187 -0.805343 0.047793
v -0.495673 -0.821490 -0.046736
v -0.427493 -0.780470 -0.026477
v -0.451403 -0.759035 -0.042267
v -0.364643 -0.969278 -0.090232
v -0.248750 -1.233430 0.231444
v -0.121620 -1.248583 0.074851
v -0.119238 1.110592 0.443897
v 0.047180 1.320753 0.390400
v 0.088456 1.348439 0.315842
v -0.007594 1.249520 0.243981
v 0.104324 0.162196 0.435801
v 0.149744 0.219073 0.428609
v 0.229705 0.131528 0.395682
v 0.289548 0.170540 0.404873
v 0.185213 0.270409 0.398208
v 0.279239 0.180949 0.349624
v 0.340082 0.256822 0.346903
v 0.390487 0.196225 0.316746
v 0.096785 1.275293 0.283898
v 0.150383 1.074640 0.087790
v 0.024967 1.183982 0.250712
v 0.123091 1.297431 0.047748
v 0.158214 1.382069 0.225085
v 0.016134 1.183233 0.117698
v 0.167621 1.140857 0.005100
v -0.032224 1.178827 -0.070023
v 0.289385 0.886156 -0.116566
v 0.043828 1.073510 -0.030755
v 0.044109 1.187823 -0.127004
v 0.152907 0.818503 -0.175196
v 0.109651 1.115051 -0.099370
v 0.311537 0.750297 0.136122
v 0.218422 0.869404 0.155017
v 0.138169 0.679531 0.186011
v 0.078341 1.040073 0.071297
v 0.004275 0.855330 -0.055186
v -0.028635 0.546139 -0.180582
v 0.001341 0.688124 -0.154846
v 0.316739 0.192243 0.175244
v 0.203704 0.510224 0.180077
v 0.186491 0.401584 0.034957
v 0.040515 0.565389 0.106431
v 0.042756 0.401563 -0.176426
v 0.314237 0.408579 -0.125417
v 0.351588 0.868323 0.045604
v 0.345159 0.577321 0.050728
v 0.404676 0.187153 0.139672
v 0.584701 0.158491 -0.011799
v 0.487919 0.189292 -0.149521
v 0.384548 0.103143 -0.103278
v -0.150552 -0.570771 0.758932
v 0.002967 -0.642196 0.748164
v 0.053840 -0.240560 0.330274
v -0.039840 -0.264057 0.346776
v 0.189007 -0.327759 0.390695
v 0.216386 0.056743 0.377155
v 0.210823 0.114662 0.355272
v 0.173863 0.126183 0.219455
v 0.088771 0.070179 0.300712
v 0.175560 0.082721 0.285880
v 0.051086 -0.459260 0.680296
v 0.295858 -0.647459 0.503786
v 0.366553 -0.799908 0.307338
v 0.045903 -0.977350 0.679297
v 0.151587 -0.729315 0.675314
v 0.244093 -0.998090 0.542601
v 0.037638 -1.167926 0.511839
v 0.223536 -1.167804 0.341917
v 0.142854 -1.232987 0.241220
v 0.421352 0.108814 0.161532
v 0.309363 0.061943 0.126214
v 0.218848 -0.246422 0.109375
v 0.091606 -0.123927 0.086900
v -0.131990 -0.101217 0.141012
v 0.285473 0.113167 0.103009
v 0.218619 -0.290479 -0.036638
v 0.106556 -0.183892 -0.072270
v 0.231178 -0.434414 -0.027768
v 0.283019 -0.520329 0.045066
v 0.306356 -0.609979 0.025428
v 0.264979 -0.502059 -0.023171
v 0.315697 -0.647538 0.037159
v 0.119939 -0.394853 -0.133806
v 0.197146 -0.901599 -0.174534
v 0.117760 -1.056283 -0.147150
v 0.148640 -1.180359 0.019728
v 0.563811 -0.063674 -0.041887
v 0.401921 -0.014124 -0.002762
v 0.714583 0.051452 -0.265582
v 0.615596 -0.005148 -0.022911
v 0.341577 -0.622646 0.142273
v 0.388125 -0.648538 0.112883
v 0.380004 -0.645640 0.006773
v 0.329123 -0.528611 -0.061407
v 0.330046 -1.059486 0.179900
v 0.334814 -0.843997 -0.028718
v 0.254671 -1.032016 -0.061721
v -0.565781 0.724745 -0.399252
v -0.316314 0.800612 -0.079280
v -0.099594 0.672948 -0.272621
v -0.431400 0.865187 -0.367497
v -0.103115 0.779411 -0.383861
v -0.224618 0.850926 -0.376565
v -0.104615 0.793540 -0.529037
v -0.303610 0.864542 -0.578198
v -0.555248 0.573530 -0.620159
v -0.465078 0.796211 -0.581908
v -0.139212 0.585199 -0.184968
v -0.042337 0.239661 -0.131080
v -0.565735 0.504159 -0.322456
v -0.392447 0.333199 -0.238392
v -0.484548 0.350690 -0.357698
v -0.513356 0.188222 -0.530646
v -0.471672 0.657009 -0.710497
v -0.322853 0.731801 -0.751904
v -0.371417 0.446353 -0.844179
v -0.242680 0.529341 -0.877565
v -0.398688 0.092923 -0.807701
v -0.264391 0.183460 -0.899324
v -0.842293 -0.084559 -0.099711
v -0.812244 -0.299261 -0.368812
v -0.866007 -0.010278 -0.455194
v -0.817560 -0.155715 -0.214863
v -0.587093 -0.159382 -0.230424
v -0.598157 -0.101852 -0.339888
v -0.929573 -0.138008 -0.393723
v -0.767855 -0.054417 -0.467828
v -0.784216 -0.229876 -0.487418
v -0.475668 -0.603659 -0.217606
v -0.483967 -0.452212 -0.171673
v -0.455056 -0.323550 -0.231904
v -0.306251 -0.001196 -0.252731
v -0.417527 0.001860 -0.329314
v -0.492283 -0.248369 -0.399118
v -0.338061 -0.640390 -0.153954
v -0.244323 -0.687700 -0.221508
v -0.390955 -0.668792 -0.284413
v -0.137544 -0.641070 -0.483203
v -0.510294 -0.389992 -0.510923
v -0.514694 -0.584887 -0.397722
v -0.461360 -0.418136 -0.554581
v -0.139173 -1.149840 -0.110705
v -0.492527 0.068856 -0.655036
v -0.332065 -0.424091 -0.675744
v -0.161304 -0.097952 -0.868398
v 0.067786 0.745764 -0.106911
v 0.314898 0.763891 -0.093975
v 0.304854 0.812088 -0.310146
v 0.182892 0.869546 -0.372458
v 0.281473 0.815596 -0.540735
v 0.066125 0.851341 -0.584024
v 0.170376 0.338805 -0.223941
v 0.299084 0.357629 -0.374981
v 0.384866 0.551447 -0.299947
v 0.388238 0.619673 -0.464903
v 0.323902 0.268532 -0.632336
v 0.189108 0.787268 -0.677504
v -0.113890 0.685108 -0.777597
v 0.134839 0.693824 -0.791495
v 0.033605 0.489354 -0.894317
v 0.177041 0.353805 -0.847122
v 0.023129 0.050159 -0.896181
v 0.316504 0.603315 -0.700638
v -0.094748 -0.025389 -0.206470
v 0.208809 -0.258448 -0.206776
v 0.052867 -0.009256 -0.236596
v 0.201990 -0.037493 -0.330272
v 0.279520 -0.237805 -0.385920
v 0.276117 -0.314289 -0.218814
v 0.303065 0.005191 -0.522318
v 0.295101 -0.440979 -0.170886
v 0.194292 -0.600148 -0.150758
v 0.152842 -0.661305 -0.190238
v 0.209578 -0.663977 -0.288963
v -0.084314 -0.716807 -0.241771
v 0.257014 -0.391943 -0.570190
v -0.167629 -0.978141 -0.209082
v 0.577487 0.100111 -0.402257
v 0.507470 -0.140158 -0.214607
v 0.663445 0.136860 -0.281112
v 0.603291 -0.153670 -0.253184
v 0.440660 -0.069350 -0.266923
v 0.380858 -0.098111 -0.332005
v 0.292017 -0.252903 -0.466038
v 0.569003 -0.028748 -0.494710
v 0.679588 0.015988 -0.433824
v 0.648709 -0.147676 -0.467379
v 0.487509 -0.349226 -0.498173
v 0.346176 -0.337766 -0.546480
v 0.340710 -0.561501 -0.294701
v 0.673131 -0.163061 -0.368712
v 0.237565 -0.628161 -0.403597
v 0.233614 0.095299 -0.771119
v 0.157274 -0.536231 -0.558362
v 0.126599 -0.399568 -0.697449
vn -0.2802 0.9358 -0.2140
vn -0.5903 -0.5807 0.5607
vn -0.1700 -0.1576 0.9728
vn 0.1409 0.9211 0.3629
vn 0.2929 -0.9561 -0.0064
vn 0.9378 0.0414 -0.3447
vn 0.5413 0.8180 0.1945
vn 0.2326 -0.8211 0.5212
vn -0.9787 -0.1642 -0.1234
vn 0.8931 -0.3348 -0.3005
vn -0.8690 0.0422 -0.4930
vn 0.2757 0.6591 -0.6997
vn 0.3389 0.8801 0.3326
vn -0.9663 0.2134 0.1443
vn 0.1498 0.8596 0.4884
vn -0.8406 0.3642 0.4009
vn -0.2733 0.4493 -0.8505
vn -0.8489 0.5174 -0.1076
vn 0.9505 0.2856 -0.1224
vn 0.6190 0.3044 -0.7240
vn -0.3269 0.5365 -0.7780
vn -0.0562 0.5887 -0.8064
vn 0.3706 -0.1781 0.9116
vn 0.6992 -0.1176 0.7052
vn -0.5363 -0.2234 0.8139
vn 0.6766 -0.3428 0.6516
vn -0.9135 -0.0688 0.4009
vn -0.7696 -0.2048 0.6048
vn -0.9737 0.0974 -0.2060
vn -0.9318 0.2165 -0.2914
vn -0.3253 0.3785 -0.8665
vn 0.6114 0.2342 -0.7559
vn -0.9009 0.3899 0.1908
vn 0.9435 0.1702 0.2842
vn -0.1252 -0.8443 0.5211
vn -0.2483 -0.8519 0.4611
vn -0.8229 -0.4577 0.3367
vn 0.5626 -0.7498 0.3483
vn -0.8892 -0.4050 0.2128
vn -0.3792 0.5104 0.7718
vn -0.7512 0.4881 0.4443
vn -0.5916 0.8062 -0.0031
vn -0.9742 0.0955 0.2046
vn -0.1390 0.9903 0.0051
vn -0.9588 0.1875 0.2133
vn -0.9888 0.0024 0.1493
vn -0.5048 -0.2337 0.8310
vn -0.9032 -0.4154 0.1077
vn -0.8017 -0.5756 0.1612
vn -0.2218 -0.8148 0.5356
vn -0.5412 -0.4124 0.7328
vn 0.2476 -0.6332 0.7333
vn 0.5379 -0.6453 0.5425
vn -0.9331 0.3429 0.1087
vn -0.6912 0.6824 -0.2379
vn -0.5254 0.8066 0.2707
vn -0.5376 0.7888 0.2980
vn -0.5015 0.8449 -0.1861
vn -0.2035 0.6290 -0.7503
vn -0.9487 0.2926 0.1197
vn -0.4717 0.7974 0.3762
vn -0.7442 0.6632 0.0790
vn -0.8889 0.3303 -0.3175
vn -0.5460 0.2269 -0.8065
vn -0.9594 -0.2701 -0.0806
vn -0.8032 -0.5130 -0.3030
vn 0.2397 -0.9512 0.1942
vn -0.9082 0.3758 -0.1844
vn 0.4834 -0.8661 0.1270
vn -0.9047 -0.1691 -0.3910
vn -0.6893 0.4478 0.5696
vn -0.7041 -0.1764 -0.6878
vn -0.7879 -0.0552 -0.6134
vn -0.4729 -0.4636 -0.7493
vn 0.8145 -0.5733 0.0891
vn 0.9708 0.2153 -0.1061
vn 0.5608 -0.6344 0.5320
vn -0.5422 -0.1181 -0.8319
vn 0.3201 0.3920 0.8625
vn -0.2922 0.2007 -0.9351
vn 0.4105 -0.5789 0.7045
vn -0.8964 -0.4390 0.0620
vn -0.6428 0.7330 -0.2225
vn 0.2034 -0.7334 0.6487
vn -0.9078 -0.4147 0.0626
vn -0.8622 -0.4500 0.2327
vn -0.8235 -0.5592 0.0953
vn 0.8776 0.3413 -0.3367
vn 0.7745 0.3616 -0.5191
vn -0.3735 0.8524 -0.3658
vn 0.7034 0.4142 -0.5777
vn -0.4441 -0.5764 -0.6859
vn 0.2579 0.0485 0.9650
vn -0.2066 0.2421 0.9480
vn -0.7009 0.1080 0.7051
vn -0.3237 0.2377 0.9158
vn 0.5780 0.4207 0.6993
vn -0.9161 0.1017 0.3879
vn -0.9616 0.1630 0.2207
vn -0.6072 0.1125 -0.7865
vn -0.6277 0.0037 -0.7785
vn -0.3673 0.9130 0.1774
vn -0.6965 0.7100 -0.1038
vn -0.4810 -0.6735 0.5613
vn 0.6635 -0.6346 0.3964
vn -0.5899 -0.7008 0.4012
vn 0.3093 -0.9284 0.2059
vn -0.3545 -0.9034 0.2411
vn 0.9208 -0.0135 0.3898
vn 0.9720 0.2254 0.0663
vn 0.0687 0.9973 0.0272
vn 0.2128 0.9747 0.0685
vn -0.6870 0.6308 -0.3606
vn 0.9426 -0.3079 0.1294
vn 0.2921 0.9563 0.0086
vn 0.2021 0.2935 0.9344
vn 0.0214 -0.1040 0.9943
vn 0.2793 0.9572 0.0761
vn -0.2464 0.9690 -0.0190
vn 0.0873 0.9042 -0.4182
vn -0.6582 -0.3206 -0.6812
vn -0.6946 0.7190 0.0245
vn 0.5577 0.5356 0.6341
vn -0.0207 0.6286 0.7774
vn 0.5145 0.1760 0.8392
vn 0.2004 0.6588 0.7251
vn 0.6828 0.2414 0.6895
vn 0.9044 0.3745 0.2042
vn -0.0631 -0.4983 0.8647
vn 0.4038 -0.6137 0.6785
vn 0.7749 -0.0446 0.6305
vn 0.3051 -0.8922 0.3331
vn 0.1720 -0.9405 0.2930
vn 0.5869 -0.6500 0.4828
vn 0.6672 -0.5510 0.5012
vn 0.3535 -0.9287 0.1117
vn 0.9126 -0.0906 0.3987
vn 0.9287 -0.2603 0.2641
vn -0.5335 -0.5427 -0.6488
vn -0.7152 0.0792 -0.6944
vn 0.3558 0.8824 0.3079
vn 0.1826 0.9099 0.3725
vn -0.4850 0.6866 -0.5416
vn 0.6979 0.6893 -0.1942
vn 0.7080 0.6758 -0.2050
vn 0.5154 0.2699 -0.8133
vn 0.7093 0.3114 -0.6324
vn 0.7114 0.3098 -0.6308
vn 0.7510 -0.2102 -0.6260
vn 0.0868 -0.9952 -0.0447
vn 0.1940 -0.7697 -0.6082
vn 0.7124 0.0872 0.6964
vn -0.7789 -0.5213 -0.3488
vn -0.1626 -0.8815 0.4434
vn -0.7388 -0.6732 0.0324
vn 0.9042 0.1434 0.4023
vn -0.9697 -0.2252 -0.0951
vn 0.6165 -0.6763 0.4032
vn 0.9255 0.3197 0.2033
vn -0.3176 -0.9022 0.2918
vn 0.0160 -0.9995 -0.0285
vn 0.9234 0.2943 -0.2464
vn 0.8415 0.2436 -0.4822
vn 0.4340 0.9009 -0.0086
vn 0.7961 0.5232 0.3040
vn -0.3344 -0.5787 -0.7438
vn 0.8917 -0.3248 -0.3151
vn -0.7308 0.6717 0.1218
vn -0.2051 0.9344 0.2913
vn 0.4258 0.6604 0.6185
vn 0.5092 0.8571 0.0782
vn 0.0705 0.9967 0.0397
vn -0.7047 0.7002 -0.1146
vn -0.3748 0.8981 -0.2301
vn -0.1677 -0.9467 0.2750
vn 0.0214 0.1029 0.9945
vn -0.5650 -0.1783 0.8056
vn -0.5609 -0.1810 0.8078
vn -0.6683 -0.4834 0.5654
vn -0.9905 -0.1224 -0.0634
vn -0.8268 0.4023 -0.3931
vn -0.3135 0.7709 -0.5544
vn -0.4811 0.6071 -0.6325
vn -0.4125 0.3568 -0.8381
vn -0.4300 0.3289 -0.8408
vn -0.7746 -0.0055 -0.6325
vn -0.5422 -0.0448 -0.8390
vn -0.2974 0.0785 -0.9515
vn 0.7780 -0.4459 0.4426
vn -0.0673 0.0693 0.9953
vn 0.2642 0.2783 0.9235
vn -0.8316 -0.4480 0.3283
vn -0.7871 -0.5220 0.3286
vn 0.4593 0.7233 0.5155
vn -0.9059 0.3142 -0.2838
vn 0.2755 0.7753 -0.5683
vn -0.5824 -0.0985 -0.8069
vn -0.0746 0.1175 -0.9903
vn -0.3704 -0.2881 0.8831
vn -0.6980 -0.5356 0.4753
vn -0.2686 0.3153 0.9102
vn -0.1631 0.3433 0.9250
vn -0.2343 -0.2532 0.9386
vn 0.7752 0.6225 0.1073
vn -0.9401 -0.1560 0.3031
vn -0.8528 0.1125 0.5100
vn -0.9927 -0.0760 -0.0933
vn -0.9909 -0.0849 -0.1043
vn -0.4296 0.3210 0.8441
vn 0.3995 0.3135 0.8615
vn -0.1667 -0.9816 0.0936
vn -0.5874 -0.8081 0.0431
vn -0.1113 -0.9550 -0.2750
vn -0.2245 -0.8842 -0.4095
vn -0.7271 -0.3325 -0.6007
vn -0.2982 0.6145 -0.7304
vn -0.6326 -0.4136 -0.6548
vn -0.6149 -0.1018 -0.7820
vn -0.4397 -0.2749 -0.8551
vn -0.4243 -0.2510 -0.8700
vn 0.2613 0.2747 -0.9253
vn -0.7613 0.0435 0.6469
vn 0.3374 0.9220 0.1899
vn 0.1821 0.9449 0.2722
vn -0.5204 0.6847 0.5103
vn -0.3019 0.9331 0.1956
vn 0.4388 0.8980 -0.0308
vn -0.2914 0.9518 0.0956
vn -0.1852 -0.2348 0.9542
vn 0.3749 0.0620 0.9250
vn 0.7631 -0.1156 0.6359
vn 0.9670 0.2344 0.1000
vn 0.9777 0.1861 0.0970
vn 0.9280 0.3704 0.0395
vn 0.8481 -0.4700 0.2445
vn -0.4002 0.8454 -0.3539
vn -0.0589 0.7856 -0.6159
vn -0.0620 0.7849 -0.6165
vn 0.5718 0.4797 -0.6655
vn 0.5162 0.2003 -0.8327
vn -0.0657 0.4741 -0.8780
vn 0.4709 0.1990 -0.8594
vn 0.8825 0.3671 -0.2940
vn 0.9567 -0.0377 -0.2885
vn -0.0118 0.2568 0.9664
vn 0.1590 0.3008 0.9403
vn 0.4188 0.3618 0.8329
vn 0.8871 -0.1694 0.4293
vn 0.9737 -0.0876 -0.2104
vn 0.2055 -0.0064 0.9786
vn 0.4548 0.3739 0.8083
vn 0.5976 -0.6796 0.4254
vn 0.1288 -0.9551 -0.2669
vn 0.1470 -0.8151 -0.5604
vn 0.4435 -0.3734 -0.8148
vn 0.2176 -0.0237 -0.9758
vn -0.0704 0.3437 0.9364
vn -0.6823 0.5792 -0.4462
vn 0.9020 -0.3158 0.2943
vn -0.7175 0.5626 0.4106
vn -0.8154 0.2362 -0.5286
vn 0.8465 0.4573 -0.2725
vn -0.6362 0.7248 0.2643
vn 0.4357 0.7276 -0.5299
vn 0.9780 -0.1015 -0.1820
vn -0.7418 0.6285 -0.2341
vn -0.7303 0.6357 -0.2502
vn 0.9579 -0.1280 -0.2570
vn -0.4978 0.5270 -0.6888
vn 0.3138 -0.1068 -0.9435
vn 0.6860 -0.6915 -0.2265
vn 0.7477 -0.6495 -0.1381
vn 0.9187 -0.2119 -0.3332
vn 0.5271 -0.1315 -0.8396
vn 0.0001 -0.6637 -0.7480
vn -0.0140 -0.5031 -0.8641
vn 0.4078 0.8174 -0.4069
vn -0.5202 -0.6756 0.5225
vn 0.1214 -0.7764 0.6184
vn 0.1533 0.9294 -0.3359
vn -0.4121 -0.7019 0.5810
vn -0.3992 -0.9168 -0.0116
vn 0.3705 0.9113 0.1798
vn -0.1343 -0.9248 0.3560
vn -0.9636 0.2500 0.0948
vn 0.4177 0.8644 -0.2800
vn 0.8046 0.5895 -0.0713
vn -0.1033 -0.5893 0.8013
vn 0.2574 0.9035 -0.3427
vn 0.4748 0.8652 -0.1610
vn 0.1683 -0.8307 0.5306
vn -0.5274 0.7889 0.3154
vn 0.8836 -0.4099 -0.2264
vn -0.5375 -0.6925 0.4812
vn 0.1399 0.9711 -0.1933
vn 0.5495 0.5917 -0.5898
vn 0.1091 0.8026 -0.5865
vn 0.2689 0.8419 -0.4679
vn 0.9762 0.0692 -0.2057
vn -0.3237 -0.0068 0.9461
vn 0.9585 -0.0445 -0.2817
vn -0.9870 0.1596 0.0199
vn 0.8686 -0.0993 -0.4855
vn -0.8456 0.5257 0.0932
vn -0.0596 0.2829 -0.9573
vn -0.1249 -0.0189 0.9920
vn 0.3401 -0.2462 0.9076
vn -0.2917 -0.3269 0.8989
vn 0.9489 -0.1239 0.2902
vn 0.9349 -0.0872 0.3439
vn 0.9294 -0.0768 -0.3611
vn 0.6990 0.0863 -0.7099
vn -0.2349 0.3224 -0.9170
vn 0.4991 -0.7694 0.3986
vn 0.5141 -0.7708 0.3762
vn 0.1870 -0.9609 0.2044
vn 0.9204 -0.3592 0.1541
vn -0.3314 -0.1121 0.9368
vn -0.2163 0.8992 0.3803
vn -0.6614 0.4465 0.6027
vn -0.7494 0.2005 0.6310
vn -0.3691 0.3604 0.8567
vn -0.5646 0.4734 0.6761
vn -0.7922 0.0588 0.6074
vn -0.6583 0.4402 0.6107
vn -0.2156 0.8046 0.5533
vn -0.5777 0.7918 0.1983
vn -0.6557 -0.2413 0.7154
vn -0.6876 -0.2761 0.6716
vn -0.6489 -0.5393 0.5367
vn -0.8989 -0.2442 0.3639
vn -0.1538 -0.8171 0.5556
vn -0.4770 -0.8447 0.2427
vn 0.9816 -0.1710 0.0849
vn -0.8032 -0.2908 0.5199
vn 0.2025 0.9444 -0.2589
vn 0.9890 0.1345 0.0623
vn -0.6290 0.6813 0.3744
vn -0.1886 0.6054 0.7732
vn -0.8296 0.4111 0.3778
vn -0.4773 0.5518 0.6839
vn -0.3935 0.9096 -0.1330
vn -0.4739 0.8536 -0.2162
vn -0.9393 0.0177 -0.3426
vn -0.9762 0.1760 -0.1264
vn -0.9483 -0.1968 -0.2491
vn 0.0193 0.8416 0.5398
vn -0.6114 -0.1649 -0.7740
vn -0.9685 0.0431 0.2454
vn 0.7887 -0.2421 -0.5652
vn -0.7025 -0.1207 -0.7014
vn -0.4768 -0.0105 -0.8790
vn -0.3054 0.3300 -0.8932
vn -0.9539 -0.0172 -0.2997
vn -0.9930 -0.1090 -0.0452
vn -0.9168 -0.3183 -0.2412
vn -0.7017 0.3525 0.6191
vn -0.6914 0.5256 -0.4957
vn -0.9687 0.1292 -0.2121
vn 0.5073 -0.4948 -0.7055
vn -0.4359 -0.5007 -0.7478
vn -0.6667 -0.7105 -0.2252
vn -0.7306 -0.6744 0.1065
vn -0.2162 -0.9729 -0.0814
vn -0.4111 -0.8203 -0.3976
vn -0.4783 -0.8221 -0.3088
vn -0.8072 -0.3524 0.4734
vn 0.8856 -0.0975 0.4541
vn -0.6753 0.7303 -0.1027
vn 0.2721 0.3442 0.8986
vn 0.0545 -0.3075 0.9500
vn -0.5525 -0.2003 -0.8091
vn 0.0087 -0.2419 0.9703
vn 0.6298 0.1440 0.7633
vn 0.8102 -0.1547 0.5654
vn -0.6132 0.7577 -0.2234
vn 0.8520 -0.2314 0.4697
vn -0.7783 0.4838 -0.4002
vn 0.9869 -0.0862 0.1367
vn -0.6715 0.7244 0.1560
vn 0.6605 0.5565 -0.5040
vn -0.3648 -0.5992 -0.7127
vn -0.7656 0.2070 -0.6091
vn 0.2519 0.0637 0.9657
vn -0.4599 -0.2083 0.8632
vn 0.6502 0.5211 0.5528
vn -0.9260 0.1281 0.3551
vn -0.8662 -0.3215 -0.3825
vn -0.7467 0.5520 0.3712
vn 0.6311 -0.6125 0.4760
vn -0.8734 -0.4244 0.2389
vn 0.5960 0.3514 0.7220
vn 0.9714 -0.0256 -0.2362
vn 0.8182 0.5141 -0.2573
vn 0.9304 0.1309 -0.3425
vn 0.7757 0.6304 0.0299
vn -0.7761 0.6178 -0.1269
vn -0.0837 0.9364 -0.3409
vn 0.7107 -0.1955 0.6758
vn 0.6380 0.3300 0.6958
vn -0.6953 0.6148 -0.3721
vn 0.1486 -0.1807 0.9722
vn 0.2321 -0.2726 0.9337
vn 0.3704 0.6994 0.6113
vn -0.9024 0.0737 0.4246
vn -0.3044 -0.9433 -0.1323
vn 0.5424 0.2959 -0.7863
vn -0.0272 0.8362 0.5478
vn 0.7220 0.4324 0.5402
vn 0.4655 0.7012 0.5401
vn 0.3908 0.8502 0.3527
vn 0.3674 -0.1418 0.9192
vn 0.5388 -0.2165 0.8141
vn -0.0018 -0.6600 0.7512
vn 0.4884 -0.6903 0.5338
vn 0.9491 0.2939 0.1135
vn 0.8589 -0.4310 0.2765
vn -0.8829 0.3823 0.2727
vn 0.2835 0.8359 0.4700
vn 0.1836 -0.9433 0.2766
vn 0.6411 0.7164 0.2751
vn 0.1827 0.9096 0.3731
vn 0.2480 0.9523 -0.1781
vn 0.1325 0.9316 -0.3385
vn 0.0327 0.5619 -0.8266
vn 0.0178 0.6013 -0.7988
vn 0.2928 0.2848 -0.9128
vn 0.9960 0.0852 -0.0273
vn 0.8914 0.4374 -0.1186
vn 0.8462 0.0763 -0.5274
vn 0.6929 0.0160 -0.7209
vn 0.6952 -0.6570 -0.2916
vn 0.4784 -0.6600 -0.5792
vn 0.5345 -0.4056 -0.7415
vn 0.7134 0.0618 -0.6980
vn 0.6688 -0.7413 -0.0560
vn 0.1959 -0.9552 -0.2218
vn 0.6419 -0.7496 -0.1613
vn 0.1230 -0.8712 -0.4752
vn 0.0901 -0.7276 0.6800
vn 0.3687 -0.5655 0.7377
vn -0.1777 -0.8981 0.4022
vn -0.8356 -0.4236 -0.3498
vn 0.9164 0.2734 -0.2923
vn 0.7385 0.6358 0.2243
vn 0.9433 0.1843 -0.2759
vn 0.4643 0.8846 -0.0440
vn 0.4407 0.8894 0.1216
vn 0.1637 -0.1702 0.9717
vn -0.5873 -0.4762 -0.6545
vn 0.9917 -0.0999 -0.0806
vn 0.9939 0.0469 -0.1000
vn -0.9932 0.0380 0.1099
vn -0.9992 -0.0136 -0.0384
vn 0.5143 0.8053 0.2949
vn 0.7272 0.6461 0.2317
vn 0.9183 -0.0198 0.3953
vn 0.0758 0.9790 0.1891
vn 0.3514 0.9332 -0.0747
vn -0.8592 0.4022 -0.3163
vn -0.8559 -0.4904 0.1639
vn -0.4021 -0.8980 0.1788
vn 0.3927 0.8375 -0.3800
vn 0.1003 0.7852 -0.6111
vn 0.0146 0.5315 -0.8470
vn 0.0245 0.5255 -0.8504
vn -0.9915 -0.1197 -0.0512
vn -0.7570 0.0530 -0.6513
vn -0.8451 -0.0684 -0.5302
vn -0.0509 0.0659 -0.9965
vn 0.5226 -0.6705 0.5266
vn 0.5879 0.7390 0.3290
vn -0.7445 0.6031 -0.2863
vn 0.1149 0.8512 -0.5121
vn 0.8796 0.3455 -0.3271
vn 0.4957 0.7880 -0.3653
vn -0.6689 -0.5619 -0.4868
vn -0.0194 0.1127 -0.9934
vn -0.6869 -0.7230 0.0735
vn -0.4622 -0.7135 -0.5266
vn -0.8343 0.4090 0.3696
vn 0.8306 0.5230 0.1909
vn -0.5670 -0.0598 0.8215
vn -0.7946 -0.1040 0.5982
vn 0.5730 0.6273 -0.5275
vn 0.5186 0.4882 -0.7019
vn -0.3611 0.1982 0.9112
vn -0.5125 -0.2748 0.8135
vn -0.4667 -0.3186 0.8251
vn -0.7920 0.3956 0.4650
vn -0.2479 -0.9209 0.3010
vn -0.3872 -0.8557 0.3433
vn -0.4870 -0.4304 -0.7600
vn -0.2495 -0.7582 -0.6024
vn -0.5145 -0.1718 -0.8401
vn -0.8288 -0.1634 -0.5352
vn -0.6660 -0.2639 -0.6977
vn -0.0478 -0.1264 -0.9908
vn -0.6526 0.7577 -0.0064
vn 0.1990 0.6461 0.7368
vn -0.6814 0.5179 0.5172
vn -0.3026 0.9493 0.0853
vn 0.1982 0.9612 -0.1921
vn 0.1300 0.2035 0.9704
vn 0.1287 0.1730 0.9765
vn -0.0357 0.0111 0.9993
vn 0.3340 -0.9273 0.1690
vn 0.4698 -0.2033 0.8591
vn 0.8882 0.4518 -0.0832
vn 0.9098 -0.4140 0.0293
vn 0.0441 0.9469 -0.3185
vn 0.9936 -0.0337 0.1075
vn 0.9862 -0.1590 -0.0456
vn 0.2198 0.9151 -0.3380
vn 0.6532 0.5214 -0.5491
vn 0.8771 -0.0773 -0.4741
vn 0.7493 -0.0305 -0.6615
vn 0.3097 -0.0033 -0.9508
vn 0.0128 0.0039 -0.9999
vn 0.2224 -0.3072 0.9253
vn 0.5014 -0.1680 0.8488
vn 0.5380 0.4239 0.7286
vn 0.6368 0.6961 0.3316
vn 0.8932 0.2401 0.3802
vn 0.8500 0.1928 0.4902
vn 0.9878 -0.0083 0.1556
vn 0.2849 0.3714 0.8837
vn 0.2377 0.2752 0.9315
vn 0.5850 -0.7287 0.3559
vn 0.1968 -0.9705 0.1394
vn 0.0999 -0.9429 -0.3178
vn 0.0548 -0.4895 -0.8703
vn 0.6348 0.0667 -0.7698
vn 0.1418 -0.2427 -0.9597
vn -0.1394 -0.0790 -0.9871
vn 0.1268 -0.1628 -0.9785
vn 0.8246 0.5298 0.1985
vn 0.0302 -0.9176 0.3965
vn -0.2956 0.3714 0.8802
vn 0.2910 -0.4075 0.8656
vn 0.5922 -0.6912 0.4142
vn -0.8280 0.5160 0.2193
vn 0.2140 0.5601 -0.8003
vn 0.7701 -0.5732 -0.2800
vn 0.4496 0.0972 -0.8879
vn -0.4446 0.4503 -0.7743
vn 0.2744 -0.0369 -0.9609
vn 0.3405 -0.0974 0.9352
vn 0.6735 -0.4900 0.5535
vn 0.7171 -0.5101 0.4750
vn 0.6102 -0.7863 -0.0967
vn 0.4696 -0.6304 -0.6181
vn -0.1714 0.6179 -0.7673
vn 0.2982 -0.2284 -0.9268
vn 0.9531 -0.0752 -0.2933
vn 0.6837 -0.2499 -0.6857
vn 0.1579 -0.3685 -0.9161
vn 0.5333 -0.2362 -0.8123
vn 0.0700 -0.7038 -0.7070
vn 0.6259 -0.4829 -0.6125
vn -0.7723 -0.6203 0.1370
vn -0.0739 0.9630 -0.2592
vn 0.1140 0.4266 0.8972
vn 0.4258 -0.0777 -0.9015
vt 0.275238 0.575481
vt 0.270459 0.541262
vt 0.280874 0.552986
vt 0.310020 0.506080
vt 0.317361 0.436937
vt 0.317361 0.527154
vt 0.859565 0.865055
vt 0.832574 0.900772
vt 0.851924 0.862929
vt 0.859565 0.926184
vt 0.796858 0.905700
vt 0.763326 0.874578
vt 0.777725 0.862929
vt 0.798853 0.571707
vt 0.795990 0.615974
vt 0.768257 0.612694
vt 0.530113 0.683962
vt 0.530113 0.709296
vt 0.521322 0.694417
vt 0.697748 0.956551
vt 0.697677 0.864613
vt 0.712862 0.866474
vt 0.905916 0.230613
vt 0.896822 0.192019
vt 0.913997 0.155923
vt 0.965267 0.295942
vt 0.955308 0.354159
vt 0.949951 0.293298
vt 0.901263 0.160038
vt 0.282166 0.478720
vt 0.260984 0.510606
vt 0.259211 0.486355
vt 0.560916 0.946882
vt 0.554525 0.920204
vt 0.586017 0.898403
vt 0.474201 0.923207
vt 0.501201 0.909794
vt 0.501714 0.947966
vt 0.586017 0.945128
vt 0.682139 0.401361
vt 0.661595 0.345265
vt 0.681853 0.350730
vt 0.948197 0.612496
vt 0.948197 0.568710
vt 0.965140 0.594972
vt 0.724699 0.656006
vt 0.662973 0.682068
vt 0.703013 0.637066
vt 0.834277 0.570115
vt 0.795125 0.521986
vt 0.822580 0.513894
vt 0.667399 0.632338
vt 0.643516 0.682453
vt 0.102733 0.964636
vt 0.087656 0.899379
vt 0.117113 0.895567
vt 0.117113 0.974401
vt 0.701883 0.257794
vt 0.710534 0.321311
vt 0.058382 0.986807
vt 0.028469 0.956036
vt 0.058537 0.935908
vt 0.668841 0.275503
vt 0.636006 0.291522
vt 0.637582 0.341990
vt 0.721542 0.598879
vt 0.799120 0.472079
vt 0.561320 0.253252
vt 0.774258 0.420828
vt 0.767679 0.472799
vt 0.724699 0.456596
vt 0.005337 0.947900
vt 0.022599 0.903477
vt -0.000000 0.894256
vt 0.666693 0.216689
vt 0.043408 0.875113
vt 0.058537 0.878674
vt 0.594829 0.216660
vt 0.832574 0.963945
vt 0.832574 0.926184
vt 0.848981 0.941172
vt 0.471360 0.687232
vt 0.416984 0.683742
vt 0.463628 0.647838
vt 0.814724 0.394875
vt 0.780561 0.369076
vt 0.811890 0.352055
vt 0.379231 0.659615
vt 0.459205 0.612150
vt 0.834128 0.344704
vt 0.423034 0.582548
vt 0.507440 0.629671
vt 0.490142 0.524145
vt 0.521322 0.554816
vt 0.381342 0.525598
vt 0.445416 0.548867
vt 0.443496 0.505238
vt 0.899724 0.554933
vt 0.884066 0.509188
vt 0.949348 0.568709
vt 0.937956 0.080851
vt 0.931517 0.156879
vt 0.689101 0.787617
vt 0.723432 0.771882
vt 0.898497 0.084684
vt 0.797879 0.346000
vt 0.774527 0.363095
vt 0.775073 0.340027
vt 0.835309 0.299895
vt 0.784651 0.310009
vt 0.824106 0.269235
vt 0.794926 0.251046
vt 0.761906 0.286612
vt 0.356027 0.709296
vt 0.853239 0.350632
vt 0.168019 0.922520
vt 0.182181 0.943779
vt 0.168019 0.944255
vt 0.853239 0.256747
vt 0.829174 0.246580
vt 0.356249 0.593210
vt 0.321915 0.543008
vt 0.332886 0.509250
vt 0.338191 0.967409
vt 0.327225 0.963739
vt 0.321915 0.942833
vt 0.246149 0.962594
vt 0.224403 0.965889
vt 0.246149 0.940161
vt 0.341114 0.942833
vt 0.334708 0.590232
vt 0.521322 0.503505
vt 0.528508 0.518156
vt 0.521322 0.543341
vt 0.852659 0.811105
vt 0.833593 0.808733
vt 0.867619 0.774980
vt 0.863110 0.739479
vt 0.857617 0.704912
vt 0.815121 0.734862
vt 0.746312 0.639153
vt 0.750216 0.646039
vt 0.514758 0.956744
vt 0.501714 0.913456
vt 0.523792 0.928661
vt 0.664480 0.898403
vt 0.666916 0.914468
vt 0.641052 0.918628
vt 0.875693 0.629559
vt 0.852040 0.600425
vt 0.885403 0.604587
vt 0.640405 0.939890
vt 0.523792 0.864756
vt 0.423831 0.905961
vt 0.417160 0.921798
vt 0.394242 0.897758
vt 0.867619 0.947925
vt 0.867619 0.901188
vt 0.891601 0.960458
vt 0.505468 0.859342
vt 0.394839 0.859802
vt 0.349912 0.887921
vt 0.368617 0.862696
vt 0.393787 0.432970
vt 0.360839 0.465533
vt 0.389891 0.394840
vt 0.411945 0.381175
vt 0.878810 0.850686
vt 0.899764 0.858528
vt 0.425069 0.395380
vt 0.969868 0.937949
vt 0.969868 0.969604
vt 0.950282 0.965982
vt 0.962410 0.079378
vt 0.937956 0.038747
vt 0.981505 0.051511
vt 0.954693 0.131833
vt 0.439432 0.785896
vt 0.419514 0.762948
vt 0.937956 0.128369
vt 0.997302 0.082804
vt 0.369451 0.817059
vt 0.354541 0.774947
vt 0.352623 0.744898
vt 0.276552 0.898736
vt 0.306273 0.919224
vt 0.248536 0.945342
vt 0.306643 0.896152
vt 0.257035 0.798277
vt 0.294401 0.806274
vt 0.289485 0.834377
vt 0.268298 0.836632
vt 0.450185 0.744740
vt 0.421847 0.713201
vt 0.515205 0.821598
vt 0.473984 0.836546
vt 0.472031 0.794064
vt 0.364978 0.709296
vt 0.478088 0.734727
vt 0.508824 0.765306
vt 0.450185 0.749749
vt 0.355795 0.336985
vt 0.327396 0.318465
vt 0.331806 0.273381
vt 0.686148 0.899690
vt 0.674351 0.939162
vt 0.666916 0.898403
vt 0.238539 0.787990
vt 0.217088 0.722606
vt 0.201514 0.748231
vt 0.248167 0.728570
vt 0.270682 0.777036
vt 0.357763 0.222377
vt 0.405960 0.239481
vt 0.183659 0.685492
vt 0.578784 0.816318
vt 0.608001 0.789687
vt 0.634437 0.828567
vt 0.563051 0.755186
vt 0.755216 0.353899
vt 0.765312 0.397493
vt 0.732909 0.349662
vt 0.308193 0.858259
vt 0.284314 0.844117
vt 0.318456 0.930321
vt 0.306643 0.907584
vt 0.318456 0.899260
vt 0.882439 0.364170
vt 0.882271 0.391222
vt 0.853239 0.381323
vt 0.853239 0.348026
vt 0.862666 0.327134
vt 0.638496 0.764553
vt 0.627169 0.888075
vt 0.592076 0.862872
vt 0.684759 0.781842
vt 0.710534 0.154576
vt 0.731350 0.076243
vt 0.753170 0.207239
vt 0.999421 0.567598
vt 1.000000 0.524366
vt 0.948345 0.500370
vt 1.000000 0.467794
vt 0.710534 0.040464
vt 0.771586 0.005098
vt 0.910989 0.442688
vt 0.944557 0.441953
vt 0.065237 0.844589
vt 0.034928 0.850253
vt 0.084860 0.807089
vt 0.019875 0.825248
vt 0.063400 0.786835
vt 0.789036 0.072070
vt 0.848684 0.040304
vt 0.515205 0.763040
vt 0.529293 0.709296
vt 0.529293 0.765466
vt 0.319031 0.821830
vt 0.140014 0.947274
vt 0.130358 0.958722
vt 0.124344 0.930977
vt 0.168018 0.901518
vt 0.780209 0.245756
vt 0.741770 0.236163
vt 0.787045 0.218407
vt 0.820363 0.213453
vt 0.804692 0.189480
vt 0.812721 0.175277
vt 0.850826 0.175048
vt 0.896039 0.120608
vt 0.859473 0.109336
vt 0.891686 0.079437
vt 0.852040 0.470274
vt 0.823850 0.688900
vt 0.759463 0.691571
vt 0.767452 0.647865
vt 0.816202 0.864304
vt 0.832574 0.913707
vt 0.796858 0.909563
vt 0.931352 0.948651
vt 0.913440 0.909317
vt 0.945053 0.944571
vt 0.093953 0.759820
vt 0.134178 0.712110
vt 0.131365 0.757338
vt 0.947808 0.850686
vt 0.947808 0.908862
vt 0.922564 0.853219
vt 0.884061 0.850686
vt 0.867619 0.815635
vt 0.921685 0.800021
vt 0.141691 0.772027
vt 0.158049 0.709925
vt 0.796849 0.128550
vt 0.341114 0.970728
vt 0.341114 0.946314
vt 0.352329 0.963313
vt 0.357403 0.942833
vt 0.817719 0.147332
vt 0.802017 0.162282
vt 0.820483 0.138401
vt 0.168019 0.890074
vt 0.180233 0.898621
vt 0.168019 0.912990
vt 0.664643 0.969466
vt 0.640405 0.969466
vt 0.650960 0.939890
vt 0.169477 0.884062
vt 0.168019 0.850253
vt 0.183659 0.851446
vt 0.685928 0.542494
vt 0.724699 0.520498
vt 0.682081 0.599808
vt 0.763326 0.949134
vt 0.725464 0.908749
vt 0.757126 0.916926
vt 0.224403 0.974033
vt 0.206167 0.974033
vt 0.209978 0.940161
vt 0.642869 0.542290
vt 0.647927 0.499250
vt 0.687756 0.489630
vt 0.015822 0.850253
vt 0.173171 0.509893
vt 0.176579 0.566965
vt 0.161256 0.570574
vt 0.640844 0.181715
vt 0.647444 0.106398
vt 0.667758 0.194519
vt 0.672817 0.107943
vt 0.607359 0.177588
vt 0.583305 0.128037
vt 0.530117 0.198857
vt 0.723828 0.459172
vt 0.694303 0.448933
vt 0.654251 0.449318
vt 0.647960 0.404592
vt 0.684038 0.402019
vt 0.287198 0.223035
vt 0.239855 0.161835
vt 0.321915 0.194528
vt 0.235348 0.204415
vt 0.278639 0.258602
vt 0.709921 0.710427
vt 0.701231 0.757840
vt 0.882637 0.381591
vt 0.898113 0.277912
vt 0.908471 0.380054
vt 0.923873 0.346688
vt 0.896822 0.020978
vt 0.937827 -0.000000
vt 0.925659 0.398357
vt 0.307550 0.402910
vt 0.274418 0.345018
vt 0.301784 0.341838
vt 0.256200 0.341838
vt 0.257619 0.401710
vt 0.271977 0.008406
vt 0.282992 0.043038
vt 0.240068 0.025111
vt 0.260513 0.052699
vt 0.882637 0.252767
vt 0.995077 0.794213
vt 0.955445 0.764963
vt 0.995077 0.666790
vt 0.104739 0.523840
vt 0.028923 0.474141
vt 0.062383 0.469686
vt 0.129607 0.481553
vt 0.224500 0.893028
vt 0.188331 0.917760
vt 0.183659 0.877964
vt 0.647334 0.052350
vt 0.569832 0.089691
vt 0.632605 -0.000000
vt -0.000000 0.483522
vt 0.925094 0.298474
vt 0.873384 0.292534
vt 0.882471 0.262387
vt 0.882471 0.327134
vt 0.953047 0.676911
vt 0.981675 0.646039
vt 0.095950 0.002148
vt 0.069113 0.062922
vt 0.032756 0.038969
vt 0.137051 0.005361
vt 0.171349 0.045439
vt 0.161822 0.052526
vt 0.310020 0.527154
vt 0.320220 0.538455
vt 0.310020 0.575917
vt 0.146650 0.082167
vt 0.813055 0.799161
vt 0.175729 0.174976
vt 0.248536 0.882754
vt 0.321915 0.770949
vt 0.555178 0.550984
vt 0.550738 0.602606
vt 0.537488 0.560732
vt 0.576164 0.587949
vt 0.724699 0.887502
vt 0.763326 0.862929
vt 0.622843 0.535815
vt 0.530117 0.511373
vt 0.570430 0.502265
vt 0.614387 0.506057
vt 0.228930 0.491132
vt 0.215358 0.521233
vt 0.408832 0.191349
vt 0.376752 0.200021
vt 0.369735 0.108527
vt 0.447499 0.241322
vt 0.378920 0.303086
vt 0.430389 0.296514
vt 0.457799 0.151066
vt 0.612625 0.442541
vt 0.558472 0.444088
vt 0.544962 0.478070
vt 0.511390 0.262445
vt 0.499393 0.219350
vt 0.530117 0.233111
vt 0.229947 0.335102
vt 0.179330 0.341838
vt 0.178621 0.294676
vt 0.591969 0.401361
vt 0.225914 0.297011
vt 0.481758 0.279036
vt 0.096917 0.429160
vt 0.157231 0.459302
vt 0.121172 0.349107
vt 0.139550 0.393173
vt 0.413254 0.102002
vt 0.380726 0.049749
vt 0.393305 0.011048
vt 0.098544 0.385365
vt 0.079057 0.341838
vt 0.142074 0.373377
vt 0.053092 0.641719
vt 0.046854 0.623679
vt 0.098593 0.630767
vt 0.068204 0.609331
vt 0.000000 0.590752
vt 0.085580 0.595183
vt 0.037460 0.131285
vt 0.000000 0.116521
vt 0.041105 0.169817
vt 0.031527 0.189929
vt 0.778634 0.783361
vt 0.724699 0.771112
vt 0.730874 0.718815
vt 0.220289 0.341838
vt 0.203964 0.658049
vt 0.920012 0.744470
vt 0.266318 0.662852
vt 0.311634 0.673545
vt 0.251626 0.677969
vt 0.953047 0.774110
vt 0.935370 0.816048
vt 0.190491 0.642216
vt 0.298959 0.623545
vt 0.301091 0.642619
vt 0.942485 0.736743
vt 0.217562 0.627988
vt 0.001949 0.206067
vt -0.000000 0.259240
vt 0.884746 0.646039
vt 0.929855 0.692262
vt 0.867619 0.671578
vt 0.476383 0.102407
vt 0.127274 0.257607
vt 0.166205 0.228659
vt 0.071469 0.159249
vt 0.375832 0.945366
vt 0.357403 0.963884
vt 0.357403 0.942833
vt 0.934758 0.252767
vt 0.918601 0.241692
vt 0.319110 0.411041
vt 0.310020 0.436937
vt 0.310020 0.341838
vt 0.310020 0.544986
vt 0.300584 0.560381
vt 0.295707 0.506703
vt 0.937956 0.354159
vt 0.964130 0.374366
vt 0.937956 0.393112
vt 0.796858 0.913707
vt 0.822165 0.913707
vt 0.805646 0.956555
vt 0.763326 0.947657
vt 0.501714 0.859342
vt 0.259176 0.534274
vt 0.529389 0.587063
vt 0.524404 0.629868
vt 0.524404 0.577957
vt 0.529929 0.659598
vt 0.529929 0.683962
vt 0.521323 0.665116
vt 0.723432 0.908509
vt 0.244012 0.548200
vt 0.950247 0.332796
vt 0.971745 0.322010
vt 0.977947 0.212800
vt 0.937956 0.197490
vt 0.058537 0.930193
vt 0.082448 0.984707
vt 0.852040 0.599101
vt 0.467775 0.955409
vt 0.673314 0.710427
vt 0.515205 0.822032
vt 0.528481 0.805626
vt 0.528481 0.844648
vt 0.104087 0.850294
vt 0.080342 0.850253
vt 0.738504 0.510810
vt 0.740514 0.401361
vt 0.544839 0.829122
vt 0.857340 0.966609
vt 0.206167 0.970341
vt 0.183659 0.970341
vt 0.202103 0.940161
vt 0.578727 0.898403
vt 0.530117 0.859914
vt 0.398834 0.479301
vt 0.424239 0.465885
vt 0.755389 0.344042
vt 0.965995 0.187820
vt 0.117113 0.953204
vt 0.521323 0.465885
vt 0.529706 0.475059
vt 0.521323 0.503505
vt 0.143267 0.955914
vt 0.125266 0.970282
vt 0.759305 0.317878
vt 0.325002 0.623677
vt 0.348492 0.612491
vt 0.321915 0.672364
vt 0.320595 0.371078
vt 0.319643 0.356650
vt 0.320595 0.341838
vt 0.847653 0.856507
vt 0.836979 0.839353
vt 0.610150 0.966402
vt 0.610150 0.938468
vt 0.630350 0.949013
vt 0.970898 0.829902
vt 0.953047 0.829201
vt 0.970898 0.794213
vt 0.822648 0.862929
vt 0.346694 0.592475
vt 0.230179 0.943354
vt 0.634287 0.935607
vt 0.529785 0.765466
vt 0.529785 0.805626
vt 0.515205 0.774018
vt 0.862804 0.515926
vt 0.833946 0.649301
vt 0.867619 0.646039
vt 0.450185 0.942833
vt 0.339648 0.465786
vt 0.321915 0.465885
vt 0.340716 0.447089
vt 0.913440 0.931638
vt 0.907962 0.971378
vt 0.856799 0.584933
vt 0.882484 0.589514
vt 0.640405 0.899389
vt 0.892373 0.578423
vt 0.892373 0.632425
vt 0.366848 0.386963
vt 0.903713 0.899648
vt 0.394049 0.328348
vt 0.947808 0.942345
vt 0.947808 0.888366
vt 0.964064 0.921360
vt 0.947808 0.937949
vt 0.948936 0.000000
vt 0.963633 0.152125
vt 0.367581 0.785866
vt 0.915055 0.610810
vt 0.892373 0.604902
vt 0.923356 0.568709
vt 0.686148 0.950068
vt 0.247781 0.840448
vt 0.511776 0.859342
vt 0.796858 0.862929
vt 0.598666 0.721321
vt 0.859905 0.568710
vt 0.306644 0.858259
vt 0.317192 0.866973
vt 0.306644 0.882422
vt 0.020171 0.809313
vt 0.321915 0.341838
vt 0.321915 0.398228
vt 0.320595 0.369242
vt 0.317300 0.948213
vt 0.306644 0.958990
vt 0.306644 0.930321
vt 0.689101 0.864991
vt 0.668828 0.898403
vt 0.647887 0.710427
vt 0.833011 0.000000
vt 0.310080 0.899260
vt 0.117113 0.850253
vt -0.000000 0.804391
vt 0.711779 0.264075
vt 0.710534 0.304037
vt 0.746851 0.245756
vt 0.610150 0.898403
vt 0.640405 0.928490
vt 0.610150 0.935607
vt 0.896822 0.042282
vt 0.731127 0.677323
vt 0.946774 0.401361
vt 0.884795 0.412376
vt 0.175638 0.922520
vt 0.529389 0.645232
vt 0.523398 0.657013
vt 0.523398 0.629869
vt 0.529389 0.577957
vt 0.521322 0.560567
vt 0.529389 0.543341
vt 0.183659 0.890074
vt 0.554525 0.962659
vt 0.530117 0.923413
vt 0.554525 0.898403
vt 0.802334 0.419314
vt 0.852040 0.428284
vt 0.545299 0.073553
vt 0.937956 0.363403
vt 0.977947 0.152125
vt 0.947808 0.878746
vt 0.970094 0.850686
vt 0.970094 0.888366
vt 0.227151 0.000000
vt 0.690402 0.052736
vt 0.214970 0.929412
vt 0.248536 0.940161
vt 0.248536 0.858259
vt 0.004410 0.459756
vt 0.610150 0.936036
vt 0.593106 0.949833
vt 0.586017 0.914397
vt 0.610150 0.898403
vt 0.710534 0.034546
vt 0.853239 0.272752
vt 0.860478 0.245756
vt 0.923356 0.638115
vt 0.244012 0.590752
vt 0.217012 0.581193
vt 0.227473 0.555792
vt 0.515205 0.709296
vt 0.183282 0.432350
vt 0.514623 0.153583
vt 0.364578 0.059536
vt 0.325027 0.069703
vt 0.321915 0.056049
vt 0.866902 0.169481
vt 0.948197 0.632789
vt 0.923356 0.632789
vt 0.947296 0.568710
vt 0.082027 0.672571
vt 0.183659 0.692549
vt 0.032478 0.267273
vt 0.015303 0.286096
vt 0.295058 0.598039
vt 0.319031 0.590752
vt 0.423245 0.000000
vt 0.450185 0.909360
vt 0.948197 0.644174
vt 0.948197 0.612496
vt 0.964155 0.638397
vt 0.263069 0.858259
s 0
usemtl Material.001
f 2/1/1 6/2/1 4/3/1
f 4/4/2 5/5/2 2/6/2
f 7/7/3 11/8/3 8/9/3
f 10/10/4 11/8/4 7/7/4
f 96/11/5 12/12/5 13/13/5
f 13/14/6 9/15/6 96/16/6
f 6/17/7 3/18/7 4/19/7
f 2/20/8 5/21/8 18/22/8
f 20/23/9 17/24/9 21/25/9
f 23/26/10 15/27/10 18/28/10
f 21/25/11 17/24/11 22/29/11
f 22/30/12 19/31/12 23/32/12
f 29/33/13 10/34/13 9/35/13
f 27/36/14 10/37/14 29/38/14
f 29/33/15 9/35/15 28/39/15
f 27/40/16 37/41/16 35/42/16
f 28/43/17 30/44/17 29/45/17
f 37/46/18 30/47/18 32/48/18
f 31/49/19 13/14/19 40/50/19
f 33/51/20 31/49/20 40/50/20
f 32/48/21 30/47/21 33/52/21
f 33/52/22 30/47/22 31/53/22
f 12/54/23 34/55/23 36/56/23
f 12/54/24 36/56/24 13/57/24
f 38/58/25 34/59/25 35/42/25
f 36/60/26 39/61/26 41/62/26
f 35/42/27 37/41/27 43/63/27
f 38/58/28 35/42/28 43/63/28
f 37/41/29 44/64/29 43/63/29
f 37/41/30 32/65/30 44/64/30
f 44/66/31 32/48/31 33/52/31
f 188/67/32 33/51/32 40/50/32
f 44/64/33 187/68/33 43/63/33
f 197/69/34 42/70/34 41/71/34
f 38/72/35 46/73/35 39/61/35
f 45/74/36 46/73/36 38/72/36
f 38/58/37 43/63/37 45/75/37
f 41/62/38 48/76/38 47/77/38
f 43/63/39 199/78/39 45/75/39
f 69/79/40 59/80/40 50/81/40
f 57/82/41 61/83/41 58/84/41
f 57/85/42 60/86/42 50/87/42
f 58/84/43 78/88/43 55/89/43
f 59/90/44 57/85/44 50/87/44
f 61/83/45 78/88/45 58/84/45
f 55/89/46 78/88/46 65/91/46
f 54/92/47 62/93/47 49/94/47
f 65/91/48 86/95/48 63/96/48
f 64/97/49 63/96/49 86/95/49
f 64/98/50 66/99/50 62/100/50
f 21/25/51 209/101/51 5/102/51
f 5/21/52 209/103/52 18/22/52
f 18/22/53 209/103/53 24/104/53
f 21/25/54 22/29/54 67/105/54
f 69/106/55 51/107/55 68/108/55
f 71/109/56 69/106/56 68/108/56
f 72/110/57 71/109/57 68/108/57
f 74/111/58 71/109/58 72/110/58
f 76/112/59 74/111/59 75/113/59
f 71/114/60 78/88/60 61/83/60
f 59/90/61 71/109/61 61/115/61
f 82/116/62 80/117/62 83/118/62
f 81/119/63 71/109/63 74/111/63
f 85/120/64 81/119/64 74/111/64
f 86/95/65 65/91/65 87/121/65
f 86/95/66 93/122/66 88/123/66
f 87/124/67 89/125/67 90/126/67
f 89/127/68 79/128/68 90/129/68
f 87/124/69 90/126/69 91/130/69
f 93/122/70 87/121/70 91/131/70
f 90/132/71 92/133/71 82/134/71
f 83/135/72 224/136/72 91/137/72
f 91/137/73 224/136/73 93/138/73
f 88/139/74 93/138/74 266/140/74
f 8/141/75 96/16/75 7/142/75
f 9/15/76 7/142/76 96/16/76
f 97/143/77 110/144/77 108/145/77
f 101/146/78 104/147/78 105/148/78
f 106/149/79 104/150/79 103/151/79
f 104/147/80 106/152/80 105/148/80
f 110/144/81 109/153/81 108/145/81
f 110/154/82 99/155/82 113/156/82
f 112/157/83 111/158/83 98/159/83
f 109/153/84 110/144/84 124/160/84
f 113/156/85 124/161/85 110/154/85
f 113/156/86 115/162/86 124/161/86
f 124/161/87 115/162/87 117/163/87
f 111/164/88 112/165/88 114/166/88
f 111/164/89 114/166/89 120/167/89
f 118/168/90 115/169/90 111/158/90
f 118/170/91 111/164/91 120/167/91
f 117/171/92 115/172/92 118/173/92
f 122/174/93 123/175/93 121/176/93
f 109/177/94 123/175/94 122/174/94
f 123/178/95 124/161/95 131/179/95
f 124/180/96 123/175/96 109/177/96
f 109/177/97 122/174/97 134/181/97
f 131/179/98 124/161/98 125/182/98
f 127/183/99 126/184/99 131/179/99
f 119/185/100 125/186/100 120/187/100
f 235/188/101 125/186/101 119/185/101
f 128/189/102 147/190/102 146/191/102
f 128/189/103 146/191/103 105/192/103
f 129/193/104 131/179/104 130/194/104
f 135/195/105 129/196/105 130/197/105
f 131/179/106 132/198/106 130/194/106
f 130/197/107 241/199/107 133/200/107
f 130/197/108 132/201/108 241/199/108
f 134/202/109 121/203/109 135/204/109
f 136/205/110 107/206/110 159/207/110
f 128/189/111 136/208/111 138/209/111
f 137/210/112 138/209/112 136/208/112
f 139/211/113 164/212/113 138/209/113
f 135/204/114 133/213/114 243/214/114
f 138/209/115 137/210/115 269/215/115
f 140/216/116 141/217/116 150/218/116
f 140/216/117 49/219/117 141/217/117
f 143/220/118 60/86/118 56/221/118
f 143/220/119 56/221/119 142/222/119
f 100/223/120 102/224/120 146/191/120
f 100/225/121 146/226/121 145/227/121
f 146/191/122 102/224/122 105/192/122
f 52/228/123 51/229/123 60/230/123
f 52/228/124 143/231/124 142/232/124
f 141/217/125 154/233/125 150/218/125
f 56/234/126 53/235/126 150/218/126
f 151/236/127 150/218/127 154/233/127
f 144/237/128 151/238/128 161/239/128
f 49/240/129 62/100/129 153/241/129
f 156/242/130 155/243/130 153/241/130
f 151/238/131 154/244/131 155/245/131
f 156/242/132 158/246/132 157/247/132
f 156/242/133 66/99/133 158/246/133
f 107/248/134 103/249/134 159/250/134
f 103/249/135 145/251/135 159/250/135
f 145/251/136 160/252/136 159/250/136
f 151/238/137 155/245/137 152/253/137
f 184/254/138 152/253/138 155/245/138
f 160/255/139 148/256/139 164/257/139
f 148/258/140 147/190/140 164/212/140
f 163/259/141 70/260/141 52/261/141
f 163/259/142 52/261/142 162/262/142
f 147/190/143 128/189/143 164/212/143
f 166/263/144 162/264/144 161/239/144
f 161/239/145 165/265/145 166/263/145
f 165/265/146 172/266/146 166/263/146
f 167/267/147 170/268/147 261/269/147
f 172/266/148 167/267/148 261/269/148
f 173/270/149 185/271/149 186/272/149
f 95/273/150 158/246/150 66/99/150
f 231/274/151 174/275/151 175/276/151
f 159/277/152 179/278/152 137/279/152
f 164/280/153 139/281/153 160/282/153
f 177/283/154 268/284/154 176/285/154
f 268/286/155 177/287/155 271/288/155
f 137/289/156 179/290/156 178/291/156
f 139/281/157 271/288/157 177/287/157
f 179/292/158 176/285/158 270/293/158
f 161/239/159 152/253/159 180/294/159
f 180/295/160 171/296/160 181/297/160
f 181/297/161 171/296/161 182/298/161
f 169/299/162 168/300/162 180/294/162
f 171/301/163 185/271/163 261/269/163
f 182/302/164 169/303/164 181/304/164
f 183/305/165 168/306/165 182/307/165
f 183/308/166 182/309/166 171/310/166
f 186/272/167 185/271/167 184/254/167
f 190/311/168 187/312/168 44/66/168
f 190/311/169 44/66/169 188/313/169
f 192/314/170 189/315/170 191/316/170
f 192/317/171 191/318/171 193/319/171
f 190/311/172 192/320/172 194/321/172
f 187/312/173 190/311/173 196/322/173
f 194/321/174 196/322/174 190/311/174
f 46/73/175 45/74/175 200/323/175
f 198/324/176 47/325/176 48/326/176
f 200/327/177 222/328/177 48/329/177
f 48/329/178 222/328/178 221/330/178
f 201/331/179 199/78/179 202/332/179
f 199/78/180 195/333/180 202/332/180
f 195/334/181 196/322/181 203/335/181
f 196/322/182 194/321/182 204/336/182
f 204/336/183 203/335/183 196/322/183
f 203/335/184 204/336/184 206/337/184
f 205/338/185 203/335/185 206/337/185
f 205/339/186 207/340/186 195/341/186
f 207/340/187 205/339/187 208/342/187
f 208/342/188 205/339/188 206/343/188
f 209/103/189 210/344/189 212/345/189
f 212/346/190 219/347/190 24/348/190
f 24/348/191 219/347/191 213/349/191
f 209/101/192 67/105/192 215/350/192
f 209/101/193 215/350/193 210/351/193
f 26/352/194 24/348/194 213/349/194
f 67/353/195 211/354/195 215/355/195
f 216/356/196 211/354/196 25/357/196
f 215/358/197 211/359/197 217/360/197
f 217/360/198 211/359/198 216/361/198
f 219/347/199 212/346/199 218/362/199
f 212/363/200 210/364/200 218/365/200
f 221/366/201 85/367/201 76/368/201
f 221/366/202 76/368/202 253/369/202
f 48/326/203 221/366/203 253/369/203
f 223/370/204 213/371/204 220/372/204
f 202/332/205 222/328/205 201/331/205
f 222/328/206 202/332/206 223/373/206
f 202/332/207 232/374/207 223/373/207
f 230/375/208 223/373/208 232/374/208
f 219/376/209 85/367/209 221/366/209
f 220/377/210 213/349/210 219/347/210
f 225/378/211 226/379/211 264/380/211
f 218/365/212 229/381/212 226/382/212
f 226/383/213 227/384/213 264/385/213
f 226/383/214 229/386/214 227/384/214
f 229/386/215 228/387/215 230/388/215
f 230/389/216 228/390/216 223/391/216
f 229/386/217 230/388/217 233/392/217
f 93/138/218 224/136/218 225/393/218
f 233/392/219 207/340/219 234/394/219
f 234/394/220 207/340/220 208/342/220
f 119/185/221 120/187/221 116/395/221
f 127/183/222 189/396/222 126/184/222
f 238/397/223 236/398/223 237/399/223
f 119/400/224 236/398/224 238/397/224
f 191/316/225 127/401/225 119/402/225
f 238/397/226 191/403/226 119/400/226
f 239/404/227 238/397/227 237/399/227
f 240/405/228 193/406/228 191/403/228
f 48/326/229 253/369/229 198/324/229
f 241/407/230 132/408/230 198/324/230
f 242/409/231 241/410/231 256/411/231
f 244/412/232 236/413/232 135/204/232
f 243/214/233 244/412/233 135/204/233
f 237/414/234 236/413/234 244/412/234
f 242/409/235 245/415/235 243/214/235
f 193/406/236 240/405/236 247/416/236
f 248/417/237 240/405/237 246/418/237
f 247/416/238 240/405/238 248/417/238
f 246/419/239 252/420/239 248/421/239
f 248/422/240 252/423/240 250/424/240
f 249/425/241 247/416/241 248/417/241
f 249/426/242 248/422/242 250/424/242
f 252/420/243 239/427/243 244/412/243
f 244/412/244 245/415/244 252/420/244
f 76/368/245 77/428/245 253/369/245
f 253/369/246 77/428/246 255/429/246
f 255/429/247 260/430/247 254/431/247
f 256/411/248 259/432/248 242/409/248
f 259/432/249 273/433/249 265/434/249
f 172/435/250 261/436/250 260/430/250
f 254/431/251 260/430/251 258/437/251
f 261/438/252 262/439/252 279/440/252
f 263/441/253 264/442/253 281/443/253
f 227/384/254 283/444/254 281/445/254
f 265/446/255 278/447/255 283/444/255
f 264/448/256 262/449/256 173/450/256
f 258/437/257 260/430/257 270/451/257
f 267/452/258 139/211/258 138/209/258
f 178/291/259 179/290/259 280/453/259
f 272/454/260 258/455/260 271/456/260
f 139/211/261 267/452/261 271/456/261
f 275/457/262 269/458/262 178/291/262
f 267/452/263 272/454/263 271/456/263
f 267/452/264 269/215/264 275/459/264
f 178/291/265 280/453/265 275/457/265
f 272/454/266 273/460/266 257/461/266
f 273/460/267 272/454/267 267/452/267
f 276/462/268 275/457/268 280/453/268
f 273/460/269 267/452/269 274/463/269
f 277/464/270 278/447/270 276/465/270
f 281/466/271 277/467/271 279/468/271
f 279/468/272 277/467/272 280/453/272
f 245/415/273 259/432/273 282/469/273
f 282/470/274 251/471/274 250/424/274
f 227/384/275 233/392/275 284/472/275
f 233/392/276 234/394/276 284/472/276
f 1/473/277 4/474/277 3/475/277
f 5/102/278 1/476/278 3/477/278
f 4/478/279 1/479/279 5/480/279
f 20/481/280 3/482/280 17/483/280
f 5/102/281 3/477/281 20/23/281
f 96/484/282 8/485/282 11/486/282
f 9/487/283 10/488/283 7/489/283
f 96/11/284 11/490/284 12/12/284
f 11/491/285 10/37/285 27/36/285
f 14/492/286 6/2/286 2/1/286
f 14/493/287 2/494/287 16/495/287
f 16/496/288 15/497/288 14/498/288
f 6/2/289 17/483/289 3/482/289
f 19/31/290 6/2/290 14/492/290
f 16/499/291 2/20/291 18/22/291
f 19/31/292 14/492/292 15/500/292
f 15/27/293 16/501/293 18/28/293
f 20/23/294 21/25/294 5/102/294
f 19/31/295 17/483/295 6/2/295
f 23/26/296 19/502/296 15/27/296
f 19/31/297 22/30/297 17/483/297
f 25/357/298 22/30/298 23/32/298
f 25/503/299 23/26/299 24/504/299
f 35/505/300 34/55/300 27/506/300
f 28/507/301 9/15/301 13/14/301
f 27/36/302 29/38/302 30/508/302
f 31/49/303 28/507/303 13/14/303
f 37/46/304 27/509/304 30/47/304
f 31/510/305 30/511/305 28/512/305
f 12/54/306 27/506/306 34/55/306
f 36/56/307 34/55/307 39/513/307
f 34/55/308 38/514/308 39/513/308
f 40/50/309 13/14/309 36/515/309
f 41/71/310 40/50/310 36/515/310
f 41/71/311 42/70/311 40/50/311
f 188/67/312 40/50/312 42/70/312
f 44/66/313 33/52/313 188/313/313
f 41/62/314 39/61/314 46/73/314
f 41/62/315 46/73/315 48/76/315
f 48/76/316 46/73/316 200/323/316
f 197/69/317 41/71/317 47/516/317
f 140/216/318 54/517/318 49/219/318
f 56/221/319 60/86/319 57/85/319
f 60/518/320 69/79/320 50/81/320
f 51/519/321 69/520/321 60/521/321
f 140/216/322 53/235/322 54/517/322
f 57/522/323 54/517/323 53/235/323
f 55/89/324 54/92/324 58/84/324
f 57/522/325 58/523/325 54/517/325
f 57/522/326 53/235/326 56/234/326
f 59/90/327 61/115/327 57/85/327
f 54/92/328 55/89/328 62/93/328
f 62/93/329 55/89/329 63/96/329
f 62/93/330 63/96/330 64/97/330
f 63/96/331 55/89/331 65/91/331
f 156/242/332 62/100/332 66/99/332
f 94/524/333 66/525/333 64/97/333
f 18/28/334 24/504/334 23/26/334
f 209/101/335 21/25/335 67/105/335
f 52/526/336 68/108/336 51/107/336
f 26/527/337 25/503/337 24/504/337
f 69/106/338 71/109/338 59/90/338
f 52/261/339 70/260/339 68/528/339
f 68/529/340 70/530/340 72/531/340
f 73/532/341 72/533/341 163/259/341
f 75/113/342 72/110/342 73/534/342
f 74/111/343 72/110/343 75/113/343
f 78/88/344 83/535/344 79/536/344
f 78/88/345 71/114/345 81/537/345
f 78/88/346 81/537/346 83/535/346
f 83/538/347 80/539/347 79/540/347
f 83/135/348 81/541/348 84/542/348
f 82/543/349 92/544/349 80/545/349
f 82/546/350 83/547/350 91/548/350
f 224/136/351 83/135/351 84/542/351
f 84/542/352 81/541/352 85/549/352
f 85/120/353 74/111/353 76/112/353
f 87/121/354 78/88/354 79/536/354
f 65/91/355 78/88/355 87/121/355
f 87/121/356 93/122/356 86/95/356
f 79/536/357 89/550/357 87/121/357
f 79/128/358 92/551/358 90/129/358
f 92/544/359 79/552/359 80/545/359
f 90/553/360 82/554/360 91/555/360
f 231/274/361 88/139/361 266/140/361
f 94/524/362 86/95/362 88/123/362
f 64/97/363 86/95/363 94/524/363
f 66/99/364 94/556/364 95/273/364
f 95/557/365 88/139/365 231/274/365
f 95/557/366 94/558/366 88/139/366
f 110/154/367 97/559/367 99/155/367
f 98/560/368 97/561/368 108/562/368
f 99/563/369 97/564/369 98/159/369
f 103/151/370 104/150/370 101/565/370
f 103/151/371 101/565/371 102/566/371
f 102/567/372 101/146/372 105/148/372
f 102/566/373 145/568/373 103/151/373
f 107/569/374 106/149/374 103/151/374
f 112/165/375 98/560/375 108/562/375
f 99/563/376 98/159/376 111/158/376
f 112/165/377 108/562/377 109/570/377
f 113/571/378 99/563/378 111/158/378
f 114/166/379 112/165/379 109/570/379
f 115/169/380 113/571/380 111/158/380
f 120/167/381 114/166/381 116/572/381
f 117/171/382 118/173/382 120/573/382
f 125/574/383 117/575/383 120/576/383
f 121/176/384 123/175/384 129/577/384
f 131/179/385 129/193/385 123/178/385
f 134/181/386 114/578/386 109/177/386
f 124/161/387 117/163/387 125/182/387
f 131/179/388 125/182/388 235/579/388
f 235/580/389 127/581/389 131/582/389
f 133/200/390 135/195/390 130/197/390
f 132/198/391 131/179/391 126/184/391
f 134/181/392 122/174/392 121/176/392
f 236/413/393 134/202/393 135/204/393
f 116/572/394 114/166/394 134/202/394
f 236/413/395 116/572/395 134/202/395
f 136/205/396 106/583/396 107/206/396
f 106/584/397 128/189/397 105/192/397
f 128/189/398 106/584/398 136/208/398
f 135/195/399 121/585/399 129/196/399
f 137/279/400 136/586/400 159/277/400
f 138/209/401 164/212/401 128/189/401
f 141/217/402 49/219/402 153/587/402
f 102/566/403 100/588/403 145/568/403
f 143/231/404 52/228/404 60/230/404
f 145/589/405 146/590/405 149/591/405
f 145/251/406 149/592/406 160/252/406
f 144/593/407 52/594/407 142/595/407
f 149/596/408 147/597/408 148/598/408
f 151/236/409 144/599/409 150/218/409
f 56/234/410 150/218/410 144/599/410
f 142/600/411 56/234/411 144/599/411
f 141/217/412 153/587/412 154/233/412
f 154/233/413 153/587/413 155/601/413
f 62/100/414 156/242/414 153/241/414
f 155/243/415 156/242/415 157/247/415
f 152/253/416 161/239/416 151/238/416
f 184/254/417 155/245/417 157/602/417
f 146/590/418 147/603/418 149/591/418
f 162/262/419 52/261/419 144/604/419
f 149/592/420 148/605/420 160/252/420
f 161/239/421 162/264/421 144/237/421
f 162/262/422 73/532/422 163/259/422
f 73/534/423 166/606/423 75/113/423
f 166/606/424 73/534/424 162/607/424
f 166/606/425 76/112/425 75/113/425
f 77/608/426 76/112/426 166/606/426
f 172/609/427 77/610/427 166/611/427
f 167/267/428 165/265/428 161/239/428
f 170/268/429 167/267/429 168/300/429
f 261/269/430 170/268/430 171/301/430
f 172/266/431 165/265/431 167/267/431
f 175/612/432 186/272/432 184/254/432
f 175/276/433 174/275/433 186/613/433
f 186/613/434 174/275/434 173/450/434
f 185/271/435 173/270/435 261/269/435
f 158/246/436 184/614/436 157/247/436
f 158/246/437 95/273/437 175/615/437
f 175/615/438 184/614/438 158/246/438
f 95/557/439 231/274/439 175/276/439
f 159/250/440 160/252/440 176/285/440
f 179/292/441 159/250/441 176/285/441
f 160/252/442 177/283/442 176/285/442
f 160/282/443 139/281/443 177/287/443
f 180/294/444 167/267/444 161/239/444
f 180/294/445 168/300/445 167/267/445
f 185/271/446 171/301/446 180/294/446
f 169/303/447 180/616/447 181/304/447
f 170/617/448 168/618/448 183/619/448
f 168/620/449 169/621/449 182/622/449
f 170/623/450 183/308/450 171/310/450
f 185/271/451 152/253/451 184/254/451
f 152/253/452 185/271/452 180/294/452
f 43/63/453 187/68/453 199/78/453
f 199/78/454 187/68/454 195/333/454
f 192/624/455 188/625/455 42/626/455
f 189/627/456 192/628/456 42/70/456
f 197/69/457 189/627/457 42/70/457
f 192/320/458 190/311/458 188/313/458
f 194/321/459 192/320/459 193/406/459
f 195/334/460 187/312/460 196/322/460
f 45/75/461 199/78/461 201/331/461
f 45/75/462 201/331/462 200/327/462
f 247/416/463 194/321/463 193/406/463
f 194/321/464 247/416/464 204/336/464
f 206/337/465 204/336/465 247/416/465
f 249/425/466 206/337/466 247/416/466
f 202/332/467 195/333/467 232/374/467
f 205/338/468 195/334/468 203/335/468
f 232/374/469 195/333/469 207/629/469
f 208/342/470 206/343/470 249/426/470
f 209/103/471 212/345/471 24/104/471
f 214/630/472 26/352/472 213/349/472
f 67/353/473 22/30/473 211/354/473
f 25/357/474 211/354/474 22/30/474
f 216/631/475 25/503/475 26/527/475
f 214/632/476 216/633/476 26/634/476
f 210/635/477 215/358/477 217/360/477
f 228/387/478 217/360/478 216/361/478
f 229/381/479 218/365/479 210/364/479
f 210/635/480 217/360/480 228/387/480
f 221/330/481 223/373/481 220/636/481
f 223/370/482 214/637/482 213/371/482
f 221/330/483 222/328/483 223/373/483
f 200/327/484 201/331/484 222/328/484
f 223/370/485 216/638/485 214/637/485
f 228/639/486 216/638/486 223/370/486
f 219/376/487 84/640/487 85/367/487
f 84/641/488 219/642/488 218/643/488
f 224/644/489 84/641/489 218/643/489
f 220/636/490 219/645/490 221/330/490
f 225/378/491 224/646/491 226/379/491
f 226/379/492 224/646/492 218/647/492
f 229/386/493 210/635/493 228/387/493
f 227/384/494 229/386/494 233/392/494
f 266/140/495 93/138/495 225/393/495
f 230/375/496 232/374/496 207/629/496
f 230/388/497 207/340/497 233/392/497
f 251/471/498 234/394/498 208/342/498
f 119/648/499 127/581/499 235/580/499
f 189/649/500 197/650/500 126/651/500
f 127/401/501 191/316/501 189/315/501
f 238/397/502 240/405/502 191/403/502
f 240/405/503 238/397/503 239/404/503
f 132/408/504 47/325/504 198/324/504
f 132/408/505 197/650/505 47/325/505
f 126/651/506 197/650/506 132/408/506
f 133/200/507 241/199/507 242/652/507
f 241/407/508 198/324/508 256/653/508
f 239/427/509 237/414/509 244/412/509
f 133/213/510 242/409/510 243/214/510
f 267/452/511 138/209/511 269/215/511
f 259/432/512 245/415/512 242/409/512
f 245/415/513 244/412/513 243/214/513
f 246/418/514 240/405/514 239/404/514
f 252/420/515 246/419/515 239/427/515
f 282/469/516 252/420/516 245/415/516
f 250/654/517 252/420/517 282/469/517
f 249/426/518 250/424/518 251/471/518
f 251/471/519 208/342/519 249/426/519
f 198/324/520 253/369/520 255/429/520
f 198/324/521 255/429/521 256/653/521
f 256/653/522 255/429/522 254/431/522
f 257/655/523 254/656/523 258/657/523
f 257/655/524 256/411/524 254/656/524
f 257/655/525 259/432/525 256/411/525
f 259/432/526 257/655/526 273/433/526
f 260/430/527 77/428/527 172/435/527
f 255/429/528 77/428/528 260/430/528
f 279/440/529 262/439/529 263/441/529
f 263/441/530 262/439/530 264/442/530
f 281/445/531 264/385/531 227/384/531
f 174/275/532 231/274/532 266/140/532
f 261/269/533 173/270/533 262/658/533
f 174/275/534 266/140/534 173/450/534
f 266/140/535 225/393/535 264/448/535
f 266/140/536 264/448/536 173/450/536
f 269/458/537 137/289/537 178/291/537
f 176/285/538 268/284/538 270/293/538
f 268/659/539 271/660/539 258/661/539
f 268/284/540 258/662/540 270/293/540
f 280/663/541 179/292/541 270/293/541
f 258/455/542 272/454/542 257/461/542
f 275/459/543 274/463/543 267/452/543
f 276/462/544 280/453/544 277/467/544
f 274/664/545 275/665/545 276/465/545
f 278/666/546 273/460/546 274/463/546
f 276/465/547 278/447/547 274/664/547
f 260/430/548 261/436/548 270/451/548
f 270/293/549 261/438/549 279/440/549
f 280/663/550 270/293/550 279/440/550
f 263/441/551 281/443/551 279/440/551
f 283/444/552 277/464/552 281/445/552
f 265/667/553 273/460/553 278/666/553
f 283/444/554 278/447/554 277/464/554
f 265/434/555 282/469/555 259/432/555
f 284/668/556 282/469/556 265/434/556
f 284/472/557 234/394/557 251/471/557
f 284/472/558 251/471/558 282/470/558
f 227/384/559 284/472/559 283/444/559
f 265/446/560 283/444/560 284/472/560
f 12/669/561 11/491/561 27/36/561
f 163/670/562 72/671/562 70/672/562
f 150/218/563 53/235/563 140/216/563
f 116/395/564 236/673/564 119/185/564
